<?xml version="1.0" encoding="iso-8859-1"?>
<!DOCTYPE svg PUBLIC "-//W3C//DTD SVG 1.1 Basic//EN" "http://www.w3.org/Graphics/SVG/1.1/DTD/svg11-basic.dtd">
<svg version="1.1" baseProfile="basic" id="Layer_1"
   xmlns="http://www.w3.org/2000/svg" xmlns:xlink="http://www.w3.org/1999/xlink" x="0px" y="0px" width="1000px" height="1000px"
   viewBox="0 0 1000 1000" xml:space="preserve">
   <path transform="matrix(1.0,0,0,1.0,62,0)" style="fill:#000000" d="M 155 744 L 727 744 L 727 759 L 155 759 z M 134 780 L 748 780 L 748 723 L 134 723 z M 155 678 L 727 678 L 727 692 L 155 692 z M 134 714 L 748 714 L 748 657 L 134 657 z M 155 614 L 727 614 L 727 628 L 155 628 z M 134 649 L 748 649 L 748 593 L 134 593 z M 155 543 L 727 543 L 727 558 L 155 558 z M 134 580 L 748 580 L 748 522 L 134 522 z M 155 474 L 727 474 L 727 488 L 155 488 z M 134 509 L 748 509 L 748 453 L 134 453 z M 155 410 L 727 410 L 727 424 L 155 424 z M 134 446 L 748 446 L 748 389 L 134 389 z M 155 809 L 727 809 L 727 824 L 155 824 z M 134 845 L 748 845 L 748 787 L 134 787 z M 168 194 L 155 194 L 155 150 L 300 150 L 300 194 L 286 194 L 286 163 L 234 163 L 234 279 L 266 279 L 266 292 L 189 292 L 189 279 L 221 279 L 221 163 L 168 163 z M 189 184 L 199 184 L 199 258 L 168 258 L 168 313 L 287 313 L 287 258 L 256 258 L 256 184 L 265 184 L 265 216 L 321 216 L 321 139 L 320 129 L 134 129 L 134 216 L 189 216 z M 853 326 L 573 326 C 560 326 550 316 550 304 L 550 186 L 550 129 L 550 21 L 556 21 L 853 317 z M 557 345 C 562 347 568 348 573 348 L 727 348 L 727 360 L 155 360 L 155 345 z M 529 292 L 355 292 L 355 278 L 529 278 z M 529 229 L 355 229 L 355 214 L 529 214 z M 529 165 L 355 165 L 355 150 L 529 150 z M 853 922 C 853 953 829 978 798 978 L 76 978 C 45 978 21 953 21 922 L 21 76 C 21 45 45 21 76 21 L 529 21 L 529 129 L 333 129 L 333 186 L 529 186 L 529 192 L 333 192 L 333 250 L 529 250 L 529 257 L 333 257 L 333 313 L 530 313 C 531 317 532 320 534 323 L 134 323 L 134 381 L 748 381 L 748 348 L 853 348 z M 568 3 L 565 0 L 76 0 C 34 0 0 34 0 76 L 0 922 C 0 965 34 1000 76 1000 L 798 1000 C 840 1000 875 965 875 922 L 875 308 z"/>
</svg>